<?xml version="1.0" encoding="utf-8"?>
<!-- Generator: Adobe Illustrator 19.2.1, SVG Export Plug-In . SVG Version: 6.00 Build 0)  -->
<svg version="1.1" id="Calque_1" xmlns="http://www.w3.org/2000/svg" xmlns:xlink="http://www.w3.org/1999/xlink" x="0px" y="0px"
	 viewBox="0 0 283.5 52.7" style="enable-background:new 0 0 283.5 52.7;" xml:space="preserve">
<style type="text/css">
	.st0{fill:#FCD994;}
	.st1{fill:#283380;}
	.st2{fill:#FAB42A;}
</style>
<g>
	<path class="st0" d="M52.8,39.5c-3.7,0-6.8-1.3-9.4-3.8c-2.5-2.5-3.8-5.7-3.8-9.4c0-3.7,1.3-6.8,3.8-9.3c2.6-2.5,5.7-3.8,9.4-3.8
		v6.7c-1.8,0-3.3,0.6-4.6,1.9c-1.3,1.3-1.9,2.8-1.9,4.6c0,1.8,0.6,3.3,1.9,4.6c1.3,1.3,2.8,1.9,4.6,1.9V39.5z"/>
	<path class="st0" d="M0,13.2c3.7,0,6.8,1.3,9.4,3.8c2.5,2.5,3.8,5.7,3.8,9.4c0,3.7-1.3,6.8-3.8,9.3c-2.6,2.5-5.7,3.8-9.4,3.8v-6.7
		c1.8,0,3.3-0.6,4.6-1.9c1.3-1.3,1.9-2.8,1.9-4.6c0-1.8-0.6-3.3-1.9-4.6c-1.3-1.3-2.8-1.9-4.6-1.9V13.2z"/>
	<path class="st0" d="M39.6,0c0,3.7-1.3,6.8-3.8,9.4c-2.5,2.5-5.7,3.8-9.4,3.8c-3.7,0-6.8-1.3-9.3-3.8c-2.5-2.6-3.8-5.7-3.8-9.4h6.7
		c0,1.8,0.6,3.3,1.9,4.6c1.3,1.3,2.8,1.9,4.6,1.9c1.8,0,3.3-0.6,4.6-1.9c1.3-1.3,1.9-2.8,1.9-4.6H39.6z"/>
	<path class="st0" d="M13.3,52.7c0-3.7,1.3-6.8,3.8-9.4c2.5-2.5,5.7-3.8,9.4-3.8c3.7,0,6.8,1.3,9.3,3.8c2.5,2.6,3.8,5.7,3.8,9.4
		h-6.7c0-1.8-0.6-3.3-1.9-4.6c-1.3-1.3-2.8-1.9-4.6-1.9c-1.8,0-3.3,0.6-4.6,1.9c-1.3,1.3-1.9,2.8-1.9,4.6H13.3z"/>
	<rect x="211.6" y="0.6" class="st1" width="6.7" height="38.3"/>
	<path class="st1" d="M244.5,13.5v12.8c0,1.8-0.6,3.3-1.9,4.6c-1.3,1.3-2.8,1.9-4.6,1.9c-1.8,0-3.3-0.6-4.6-1.9
		c-1.3-1.3-1.9-2.8-1.9-4.6V13.5h-6.7v12.8c0,3.7,1.3,6.8,3.8,9.4c2.5,2.6,5.6,3.8,9.3,3.8c3.7,0,6.8-1.3,9.4-3.8
		c2.5-2.5,3.8-5.7,3.8-9.4V13.5H244.5z"/>
	<path class="st1" d="M283.5,19.9v-6.7c-3.7,0-6.8,1.3-9.4,3.8c-2.1,2.1-3.4,4.6-3.7,7.6c-0.4-2.9-1.6-5.4-3.7-7.6
		c-2.5-2.5-5.7-3.8-9.4-3.8v6.7c1.8,0,3.3,0.6,4.6,1.9c1.3,1.3,1.9,2.8,1.9,4.6c0,1.8-0.6,3.3-1.9,4.6c-1.3,1.3-2.8,1.9-4.6,1.9v6.7
		c3.7,0,6.8-1.3,9.4-3.8c2.1-2.1,3.4-4.6,3.7-7.6c0.4,2.9,1.6,5.4,3.7,7.6c2.5,2.5,5.7,3.8,9.4,3.8v-6.7c-1.8,0-3.3-0.6-4.6-1.9
		c-1.3-1.3-1.9-2.8-1.9-4.6c0-1.8,0.6-3.3,1.9-4.6C280.1,20.6,281.7,19.9,283.5,19.9z"/>
	<path class="st1" d="M202.4,17c-2.5-2.5-5.7-3.8-9.4-3.8v0c-3.7,0-6.8,1.3-9.4,3.8c-2.6,2.5-3.8,5.6-3.8,9.3c0,3.7,1.3,6.8,3.8,9.4
		c2.5,2.5,5.7,3.8,9.4,3.8v0c3.7,0,6.8-1.3,9.4-3.8c2.6-2.5,3.8-5.6,3.8-9.3C206.2,22.7,204.9,19.6,202.4,17z M197.6,31
		c-1.3,1.3-2.8,1.9-4.6,1.9v0c-1.8,0-3.3-0.6-4.6-1.9c-1.3-1.3-1.9-2.8-1.9-4.6c0-1.8,0.6-3.3,1.9-4.6c1.3-1.3,2.8-1.9,4.6-1.9v0
		c1.8,0,3.3,0.6,4.6,1.9c1.3,1.3,1.9,2.8,1.9,4.6C199.5,28.2,198.9,29.7,197.6,31z"/>
	<path class="st2" d="M35.8,17c-2.5-2.5-5.7-3.8-9.4-3.8v0c-3.7,0-6.8,1.3-9.4,3.8c-2.6,2.5-3.8,5.6-3.8,9.3c0,3.7,1.3,6.8,3.8,9.4
		c2.5,2.5,5.7,3.8,9.4,3.8v0c3.7,0,6.8-1.3,9.4-3.8c2.6-2.5,3.8-5.6,3.8-9.3C39.6,22.7,38.3,19.6,35.8,17z M31,31
		c-1.3,1.3-2.8,1.9-4.6,1.9v0c-1.8,0-3.3-0.6-4.6-1.9c-1.3-1.3-1.9-2.8-1.9-4.6c0-1.8,0.6-3.3,1.9-4.6c1.3-1.3,2.8-1.9,4.6-1.9v0
		c1.8,0,3.3,0.6,4.6,1.9c1.3,1.3,1.9,2.8,1.9,4.6C33,28.2,32.3,29.7,31,31z"/>
	<path class="st1" d="M115.1,26.1c0-3.7-1.3-6.8-3.8-9.4c-2.5-2.6-5.6-3.8-9.3-3.8c-3.7,0-6.8,1.3-9.4,3.8c-0.2,0.2-0.3,0.4-0.5,0.5
		c-0.2-0.2-0.3-0.4-0.5-0.5c-2.5-2.6-5.6-3.8-9.3-3.8c-3.7,0-6.8,1.3-9.4,3.8c-2.5,2.5-3.8,5.7-3.8,9.4l0,0v12.8h6.7V26.1l0,0
		c0-1.8,0.6-3.3,1.9-4.6c1.3-1.3,2.8-1.9,4.6-1.9c1.8,0,3.3,0.6,4.6,1.9c1.2,1.3,1.9,2.8,1.9,4.6c0,0,0,0,0,0h0v12.8h6.7V26.1l0,0
		c0,0,0,0,0,0c0-1.8,0.6-3.3,1.9-4.6c1.3-1.3,2.8-1.9,4.6-1.9c1.8,0,3.3,0.6,4.6,1.9c1.3,1.3,1.9,2.8,1.9,4.6h0v12.8h6.7L115.1,26.1
		L115.1,26.1z"/>
	<path class="st1" d="M166.4,16.9c-2.5,2.5-3.8,5.6-3.8,9.2h0v12.8h6.7V26.2c0-1.8,0.6-3.3,1.9-4.6c1.3-1.3,2.8-1.9,4.6-1.9v-6.7
		C172.1,13.1,168.9,14.4,166.4,16.9z"/>
	<path class="st1" d="M148.1,32.8c-1.8,0-3.3-0.6-4.6-1.9c-1.3-1.3-1.9-2.8-1.9-4.6c0-1.8,0.7-3.3,1.9-4.6l0,0
		c1.3-1.3,2.8-1.9,4.6-1.9c1.8,0,3.3,0.7,4.6,1.9l4.7-4.7c-2.6-2.6-5.7-3.9-9.3-3.9c-3.6,0-6.7,1.3-9.3,3.9l0,0
		c-2.6,2.6-3.9,5.7-3.9,9.3c0,3.6,1.3,6.7,3.9,9.3c2.6,2.6,5.7,3.9,9.3,3.9c3.6,0,6.7-1.3,9.3-3.9l-4.7-4.7
		C151.5,32.1,150,32.8,148.1,32.8z"/>
	<rect x="122.2" y="13.4" class="st1" width="6.7" height="25.6"/>
	<path class="st1" d="M129.4,6.5c0,1.1-0.4,2-1.1,2.8c-0.7,0.8-1.7,1.1-2.7,1.1c-1.1,0-2-0.4-2.8-1.1c-0.8-0.8-1.1-1.7-1.1-2.8
		c0-1.1,0.4-2,1.1-2.7c0.8-0.7,1.7-1.1,2.8-1.1c1.1,0,2,0.4,2.7,1.1C129,4.5,129.4,5.4,129.4,6.5z"/>
</g>
</svg>
